<svg width="28" height="28" viewBox="0 0 28 28" fill="none" xmlns="http://www.w3.org/2000/svg">
<path fill-rule="evenodd" clip-rule="evenodd" d="M7.29294 7.29289C6.90241 7.68342 6.90241 8.31658 7.29294 8.70711L12.9498 14.364L7.29289 20.021C6.90237 20.4115 6.90237 21.0447 7.29289 21.4352C7.68342 21.8257 8.31658 21.8257 8.70711 21.4352L14.3641 15.7782L20.0209 21.435C20.4114 21.8256 21.0445 21.8256 21.4351 21.435C21.8256 21.0445 21.8256 20.4113 21.4351 20.0208L15.7783 14.364L21.435 8.70726C21.8256 8.31673 21.8256 7.68357 21.435 7.29304C21.0445 6.90252 20.4113 6.90252 20.0208 7.29304L14.3641 12.9498L8.70715 7.29289C8.31663 6.90237 7.68346 6.90237 7.29294 7.29289Z" fill="#ABB1BA"/>
</svg>
