<svg width="15" height="17" viewBox="0 0 15 17" fill="none" xmlns="http://www.w3.org/2000/svg">
<path fill-rule="evenodd" clip-rule="evenodd" d="M6.55846 11.6136C9.70105 11.6136 12.2486 9.06601 12.2486 5.92342C12.2486 2.78082 9.70105 0.233246 6.55846 0.233246C3.41586 0.233246 0.868286 2.78082 0.868286 5.92342C0.868286 9.06601 3.41586 11.6136 6.55846 11.6136ZM6.55856 10.1911C8.91551 10.1911 10.8262 8.28037 10.8262 5.92343C10.8262 3.56648 8.91551 1.6558 6.55856 1.6558C4.20162 1.6558 2.29094 3.56648 2.29094 5.92343C2.29094 8.28037 4.20162 10.1911 6.55856 10.1911Z" fill="#ABB2BA"/>
<rect width="5.64887" height="1.70705" rx="0.853526" transform="matrix(0.664363 0.74741 -0.664363 0.74741 11.2472 10.6653)" fill="#ABB2BA"/>
</svg>
